G:\RME\Thesis\opencap-processing\Data\089bb815-6ab6-4c35-820c-ac6f9c5db3e0\OpenSimData\Dynamics\squat\GRF_resultant_squat_0.mot
version=1
nRows=27
nColumns=19
inDegrees=yes
endheader 
time	ground_force_right_vx	ground_force_right_vy	ground_force_right_vz	ground_force_right_px	ground_force_right_py	ground_force_right_pz	ground_torque_right_x	ground_torque_right_y	ground_torque_right_z	ground_force_left_vx	ground_force_left_vy	ground_force_left_vz	ground_force_left_px	ground_force_left_py	ground_force_left_pz	ground_torque_left_x	ground_torque_left_y	ground_torque_left_z	
          0.00000000	         14.34876757	        415.09886287	        -33.56817688	          1.03365063	          0.00000000	         -0.05725675	          0.00000000	         -1.51858033	          0.00000000	        -34.90545055	        575.12276797	         56.90633943	          1.00854506	          0.00000000	         -0.46539639	          0.00000000	         -3.50834222	          0.00000000	
          0.02000000	         12.31495169	        281.03588158	        -24.16915709	          1.02391971	          0.00000000	         -0.05901866	          0.00000000	         -0.87820541	          0.00000000	        -19.40025077	        348.33636520	         34.38793358	          1.00907296	          0.00000000	         -0.46541628	          0.00000000	         -1.34974048	          0.00000000	
          0.04000000	         10.22237834	        261.50445912	        -20.15222914	          1.02149594	          0.00000000	         -0.05975268	          0.00000000	         -0.66461676	          0.00000000	        -14.24258630	        321.34541303	         29.00071589	          1.00578435	          0.00000000	         -0.46377416	          0.00000000	         -0.59425392	          0.00000000	
          0.06000000	          8.95744590	        265.28719556	        -18.58140673	          1.01872611	          0.00000000	         -0.06015124	          0.00000000	         -0.50999035	          0.00000000	        -11.25926672	        320.18895739	         26.86831697	          1.00372883	          0.00000000	         -0.46268104	          0.00000000	         -0.10821771	          0.00000000	
          0.08000000	          7.17968648	        287.95660615	        -19.49957719	          1.01608253	          0.00000000	         -0.06014185	          0.00000000	         -0.41745146	          0.00000000	         -8.89769001	        337.88803859	         27.47249255	          1.00429257	          0.00000000	         -0.46259841	          0.00000000	          0.25542911	          0.00000000	
          0.10000000	          4.37463069	        327.34795244	        -23.19242429	          1.01490455	          0.00000000	         -0.05951002	          0.00000000	         -0.38146915	          0.00000000	         -6.63665514	        373.80592409	         31.58811694	          1.00780141	          0.00000000	         -0.46348231	          0.00000000	          0.60537291	          0.00000000	
          0.12000000	          0.09535897	        370.53271151	        -28.71997596	          1.01546506	          0.00000000	         -0.05840642	          0.00000000	         -0.36219675	          0.00000000	         -3.36014223	        416.45752792	         38.29736941	          1.01337000	          0.00000000	         -0.46502301	          0.00000000	          0.91964880	          0.00000000	
          0.14000000	         -2.29218849	        396.71936230	        -31.81410898	          1.01742050	          0.00000000	         -0.05709150	          0.00000000	         -0.32619993	          0.00000000	         -2.21415545	        446.98913637	         44.26105811	          1.02075766	          0.00000000	         -0.46691076	          0.00000000	          1.12444037	          0.00000000	
          0.16000000	         -3.33058483	        394.61292002	        -30.46755770	          1.02055097	          0.00000000	         -0.05569814	          0.00000000	         -0.28008032	          0.00000000	         -2.37600069	        451.80123750	         46.67044655	          1.02964647	          0.00000000	         -0.46879743	          0.00000000	          1.07371806	          0.00000000	
          0.18000000	         -4.36200576	        371.53595774	        -26.50311774	          1.02398490	          0.00000000	         -0.05450715	          0.00000000	         -0.19117836	          0.00000000	         -1.01033256	        429.52217704	         44.94577670	          1.03749619	          0.00000000	         -0.47011393	          0.00000000	          0.84177981	          0.00000000	
          0.20000000	         -4.23661548	        346.93985198	        -21.83118440	          1.02712304	          0.00000000	         -0.05364221	          0.00000000	         -0.06348811	          0.00000000	          0.49992364	        401.95621916	         41.32875097	          1.04447836	          0.00000000	         -0.47093360	          0.00000000	          0.67617996	          0.00000000	
          0.22000000	         -3.07127030	        332.05586977	        -18.53791803	          1.03010455	          0.00000000	         -0.05298733	          0.00000000	          0.02676585	          0.00000000	          1.42205489	        383.20395938	         38.06108123	          1.05138252	          0.00000000	         -0.47154609	          0.00000000	          0.60683703	          0.00000000	
          0.24000000	         -1.09607936	        327.72928958	        -17.33598094	          1.03327594	          0.00000000	         -0.05236580	          0.00000000	          0.01661083	          0.00000000	          1.29778270	        374.27948366	         35.68477094	          1.05867607	          0.00000000	         -0.47218535	          0.00000000	          0.59094832	          0.00000000	
          0.26000000	          1.67182580	        330.34795530	        -18.20560735	          1.03679609	          0.00000000	         -0.05168201	          0.00000000	         -0.16399877	          0.00000000	         -0.23305025	        370.01072760	         33.87900523	          1.06638539	          0.00000000	         -0.47293318	          0.00000000	          0.55112600	          0.00000000	
          0.28000000	          5.12824280	        334.87404610	        -19.47029323	          1.04059779	          0.00000000	         -0.05093133	          0.00000000	         -0.55667929	          0.00000000	         -3.29483877	        363.32122828	         30.75445957	          1.07433157	          0.00000000	         -0.47376603	          0.00000000	          0.39017704	          0.00000000	
          0.30000000	          8.18923718	        336.53656714	        -20.65717358	          1.04453715	          0.00000000	         -0.05019142	          0.00000000	         -1.16447885	          0.00000000	         -7.31709384	        348.33935247	         25.86492141	          1.08242457	          0.00000000	         -0.47460736	          0.00000000	          0.06973459	          0.00000000	
          0.32000000	         10.09007611	        333.09066117	        -21.37175864	          1.04857019	          0.00000000	         -0.04950793	          0.00000000	         -1.87585347	          0.00000000	        -11.61425865	        323.61382644	         19.54940362	          1.09070592	          0.00000000	         -0.47541666	          0.00000000	         -0.34086472	          0.00000000	
          0.34000000	         10.14300426	        325.27363054	        -21.32634847	          1.05273765	          0.00000000	         -0.04887266	          0.00000000	         -2.51060721	          0.00000000	        -15.60874297	        292.43671947	         12.63653515	          1.09922249	          0.00000000	         -0.47622198	          0.00000000	         -0.70714714	          0.00000000	
          0.36000000	          7.94768356	        315.46759965	        -20.29262936	          1.05709741	          0.00000000	         -0.04824337	          0.00000000	         -2.90068944	          0.00000000	        -18.85590210	        260.36389733	          6.09940839	          1.10781554	          0.00000000	         -0.47710147	          0.00000000	         -0.91353537	          0.00000000	
          0.38000000	          3.75474539	        306.28526991	        -18.09653877	          1.06166740	          0.00000000	         -0.04757450	          0.00000000	         -2.96159695	          0.00000000	        -21.29697183	        232.63294496	          0.65057799	          1.11587910	          0.00000000	         -0.47809298	          0.00000000	         -0.93632406	          0.00000000	
          0.40000000	         -1.47084316	        300.18616986	        -14.59505955	          1.06639373	          0.00000000	         -0.04683854	          0.00000000	         -2.72241204	          0.00000000	        -23.12943337	        212.89881355	         -3.40561894	          1.12237677	          0.00000000	         -0.47905489	          0.00000000	         -0.85350253	          0.00000000	
          0.42000000	         -6.23186062	        299.73487227	        -10.49867218	          1.07113645	          0.00000000	         -0.04605005	          0.00000000	         -2.31056919	          0.00000000	        -24.90721523	        202.96353336	         -5.96159000	          1.12665268	          0.00000000	         -0.47974633	          0.00000000	         -0.77327491	          0.00000000	
          0.44000000	         -9.44028650	        307.45628790	         -7.08181780	          1.07568724	          0.00000000	         -0.04525342	          0.00000000	         -1.88708213	          0.00000000	        -27.06945946	        203.11891000	         -6.69288434	          1.12921053	          0.00000000	         -0.48013037	          0.00000000	         -0.73420659	          0.00000000	
          0.46000000	        -10.40556661	        325.72377685	         -5.80423857	          1.07978835	          0.00000000	         -0.04450553	          0.00000000	         -1.57884488	          0.00000000	        -29.87988703	        213.85717232	         -5.26800030	          1.13076377	          0.00000000	         -0.48030141	          0.00000000	         -0.73488323	          0.00000000	
          0.48000000	         -9.04565809	        355.65898386	         -7.82004070	          1.08318108	          0.00000000	         -0.04384617	          0.00000000	         -1.47181258	          0.00000000	        -32.81706605	        235.64294148	         -1.70531617	          1.13156737	          0.00000000	         -0.48030821	          0.00000000	         -0.78768505	          0.00000000	
          0.50000000	         -6.18066859	        394.94851594	        -13.31355460	          1.08570733	          0.00000000	         -0.04327538	          0.00000000	         -1.61124645	          0.00000000	        -34.69096593	        266.71946565	          3.31134959	          1.13172373	          0.00000000	         -0.48018620	          0.00000000	         -0.91632878	          0.00000000	
          0.52000000	         -3.30586218	        435.90227388	        -20.54103015	          1.08745242	          0.00000000	         -0.04275128	          0.00000000	         -1.98210907	          0.00000000	        -34.30788586	        301.24350359	          8.27269086	          1.13136289	          0.00000000	         -0.48000258	          0.00000000	         -1.13679111	          0.00000000	
